<svg width="3000" height="655" viewBox="0 0 3000 655" fill="none" xmlns="http://www.w3.org/2000/svg">
<g filter="url(#filter0_d_12_93)">
<g clip-path="url(#clip0_12_93)">
<path fill-rule="evenodd" clip-rule="evenodd" d="M411.878 614.207C412.078 614.266 412.285 614.328 412.488 614.388C412.286 614.328 412.077 614.266 411.878 614.207ZM405.304 612.208C405.397 612.237 405.49 612.265 405.583 612.294C405.654 612.316 405.724 612.338 405.795 612.359L405.583 612.294C405.49 612.265 405.397 612.237 405.304 612.208ZM94.8654 66.6136C94.6487 66.2178 94.432 65.8218 94.214 65.4234L94.8654 66.6136Z" fill="#121212"/>
<path d="M405.583 612.294L405.304 612.208C404.7 612.021 404.094 611.834 403.474 611.642C397.574 609.708 392.405 607.075 387.078 603.798L384.642 602.322C378.668 598.667 372.874 594.808 367.203 590.655C365.474 589.4 363.729 588.174 361.98 586.95C353.976 581.316 346.37 575.363 339.006 568.832C337.64 567.623 336.266 566.427 334.888 565.234C324.372 556.077 314.645 546.028 304.988 535.89C304.323 535.192 303.657 534.495 302.975 533.781L302.731 533.525C298.65 529.216 294.732 524.829 290.989 520.194C290.542 519.653 290.095 519.112 289.647 518.572C289.313 518.168 288.978 517.764 288.644 517.361C268.71 493.127 250.245 466.379 238.684 436.539C237.97 434.713 237.23 432.901 236.488 431.088C222.815 397.118 217.093 360.276 211.888 324.017C201.254 250.062 170.543 188.83 131.396 127.278C125.955 118.718 120.573 110.125 115.285 101.46C114.226 99.7278 113.161 97.9993 112.095 96.2721L111.692 95.6193L111.468 95.2566C106.562 87.2543 101.815 79.1649 97.2651 70.9326C96.4679 69.491 95.6667 68.0518 94.8654 66.6136L94.214 65.4234C93.9458 64.9333 93.6756 64.4396 93.4011 63.9382C93.1451 63.4723 92.8892 63.0061 92.6305 62.5349L92.1021 61.5724C91.0969 59.3985 90.6152 57.5247 90.2812 55.142C111.502 48.2486 135.301 64.4036 152.581 76.1333C152.972 76.3988 153.359 76.6619 153.744 76.9225C155.321 77.9794 156.913 79.0068 158.512 80.0265C169.696 87.1816 179.864 95.3986 189.729 104.435C194.237 108.715 196.454 110.82 199.029 112.159C201.519 113.455 204.345 114.035 209.903 115.176L210.706 116.022C210.583 117.144 210.355 115.139 210.33 119.385C210.304 123.632 211.206 124.757 213.564 127.493C214.869 128.86 216.194 130.207 217.533 131.536C218.233 132.26 218.932 132.983 219.653 133.729C221.889 136.037 224.149 138.316 226.411 140.596C228.648 142.883 230.879 145.176 233.11 147.471C234.497 148.894 235.889 150.313 237.286 151.726C241.221 155.719 244.898 159.837 248.439 164.218C249.64 165.612 250.844 167.005 252.052 168.393C255.324 172.222 258.356 176.16 261.285 180.283C261.45 180.513 261.616 180.743 261.783 180.974L262.088 181.396L262.23 181.593C294.337 226.073 305.489 277.349 313.97 331.421C318.087 357.601 322.362 383.735 328.723 409.427C328.88 410.067 329.037 410.707 329.196 411.357L329.236 411.518L329.417 412.254C333.781 429.721 339.867 446.643 347.902 462.613C348.923 464.649 349.926 466.695 350.929 468.742C355.119 477.273 359.425 485.702 364.047 493.982C364.287 494.415 364.527 494.848 364.771 495.287L365.117 495.909C371.869 508.065 378.786 520.113 385.753 532.134C387.415 535.008 389.057 537.894 390.681 540.792C394.943 548.361 399.454 555.007 404.992 561.626C406.219 563.189 407.44 564.757 408.654 566.33C410.4 568.59 412.151 570.845 413.935 573.071C435.263 599.856 435.263 599.856 436.603 611.62C436.438 612.955 436.363 613.556 436.111 614.059C435.903 614.471 435.575 614.816 434.978 615.445C428.728 619.228 419.575 616.5 412.488 614.388C412.285 614.328 412.078 614.266 411.878 614.207C411.179 613.999 410.502 613.799 409.852 613.615C408.498 613.203 407.145 612.785 405.795 612.359L405.583 612.294Z" fill="#121212"/>
<path d="M278.144 105.03C302.608 103.484 326.897 123.099 344.197 139.244C344.882 139.887 344.882 139.887 345.582 140.543C346.163 141.082 346.744 141.621 347.342 142.176C352.3 146.815 357.065 151.634 361.752 156.571C362.943 157.824 364.141 159.07 365.339 160.316C370.087 165.288 374.416 170.458 378.498 176.056C379.393 177.235 380.29 178.412 381.189 179.587C388.326 189.044 394.762 198.883 400.977 209.032C401.837 210.416 401.837 210.416 402.715 211.827C411.04 225.595 418.616 240.32 424.259 255.538C424.505 256.185 424.75 256.832 425.003 257.498C436.41 287.846 441.368 320.032 445.936 352.142C452.415 397.579 463.975 441.958 486.175 481.93C487.443 484.244 488.594 486.555 489.69 488.962C494.477 499.251 500.699 508.817 506.638 518.393C508.068 520.701 509.486 523.016 510.906 525.331C514.256 530.796 517.626 536.248 521.008 541.692C523.054 544.99 525.094 548.293 527.132 551.598C528.119 553.195 529.11 554.791 530.105 556.384C531.478 558.584 532.838 560.791 534.198 563.001C534.61 563.656 535.023 564.311 535.448 564.987C538.835 570.54 538.835 570.54 538.262 574.31C530.078 577.718 521.665 575.435 513.741 572.196C493.366 562.886 474.821 547.417 458.621 531.656C456.877 529.98 455.112 528.348 453.324 526.725C449.76 523.449 446.41 519.974 443.076 516.442C442.501 515.84 441.926 515.238 441.334 514.618C437.618 510.697 434.1 506.647 430.682 502.438C429.968 501.575 429.255 500.712 428.54 499.849C419.632 488.91 411.542 477.386 404.189 465.234C403.877 464.721 403.566 464.208 403.245 463.68C383.974 431.656 378.586 394.67 373.336 357.826C373.25 357.222 373.163 356.617 373.075 355.994C372.196 349.838 371.323 343.681 370.469 337.521C368.497 323.335 366.263 309.267 363.244 295.279C363.022 294.238 362.799 293.198 362.57 292.126C358.853 275.477 353.084 259.597 347.187 243.7C346.981 243.143 346.775 242.585 346.562 242.011C342.178 230.186 337.643 218.528 331.934 207.341C331.62 206.714 331.306 206.087 330.982 205.441C325.173 193.845 318.657 182.808 311.863 171.828C311.163 170.695 311.163 170.695 310.448 169.538C308.64 166.612 306.831 163.686 305.023 160.761C278.144 117.223 278.144 117.223 278.144 105.03Z" fill="#121212"/>
<path d="M446.739 194.658C472.89 197.901 501.232 226.605 516.78 247.136C518.376 249.333 519.897 251.579 521.402 253.847C521.893 254.581 521.893 254.581 522.394 255.331C533.03 271.344 541.532 288.576 547.695 307.011C547.978 307.848 548.261 308.685 548.552 309.547C554.155 326.864 556.6 344.843 559.135 362.87C565.746 409.832 578.527 461.024 610.668 496.447C612.122 498.211 612.122 498.211 612.975 500.08C613.668 501.897 613.668 501.897 616.136 502.438C616.234 503.092 616.331 503.746 616.431 504.42C617.053 508.492 617.67 512.513 618.696 516.496C619.348 519.349 619.348 519.349 618.545 521.04C613.603 520.618 609.736 519.419 605.248 517.235C604.62 516.934 603.992 516.633 603.345 516.321C589.077 509.315 576.071 499.576 564.755 488.064C564.253 487.558 563.752 487.05 563.234 486.529C555.587 478.773 548.537 470.886 542.276 461.852C541.771 461.137 541.266 460.422 540.746 459.686C536.581 453.625 532.962 447.197 529.431 440.713C528.967 439.864 528.967 439.864 528.494 438.998C513.811 411.779 509.423 380.532 504.588 350.053C500.282 322.981 495.529 295.439 483.669 270.758C483.392 270.173 483.115 269.589 482.83 268.988C477.849 258.531 472.201 248.543 466.452 238.538C446.739 204.199 446.739 204.199 446.739 194.658Z" fill="#121212"/>
<path fill-rule="evenodd" clip-rule="evenodd" d="M411.878 614.207C412.078 614.266 412.285 614.328 412.488 614.388C412.286 614.328 412.077 614.266 411.878 614.207ZM405.304 612.208C405.397 612.237 405.49 612.265 405.583 612.294C405.654 612.316 405.724 612.338 405.795 612.359L405.583 612.294C405.49 612.265 405.397 612.237 405.304 612.208ZM94.8654 66.6136C94.6487 66.2178 94.432 65.8218 94.214 65.4234L94.8654 66.6136Z" fill="url(#paint0_linear_12_93)"/>
<path d="M405.583 612.294L405.304 612.208C404.7 612.021 404.094 611.834 403.474 611.642C397.574 609.708 392.405 607.075 387.078 603.798L384.642 602.322C378.668 598.667 372.874 594.808 367.203 590.655C365.474 589.4 363.729 588.174 361.98 586.95C353.976 581.316 346.37 575.363 339.006 568.832C337.64 567.623 336.266 566.427 334.888 565.234C324.372 556.077 314.645 546.028 304.988 535.89C304.323 535.192 303.657 534.495 302.975 533.781L302.731 533.525C298.65 529.216 294.732 524.829 290.989 520.194C290.542 519.653 290.095 519.112 289.647 518.572C289.313 518.168 288.978 517.764 288.644 517.361C268.71 493.127 250.245 466.379 238.684 436.539C237.97 434.713 237.23 432.901 236.488 431.088C222.815 397.118 217.093 360.276 211.888 324.017C201.254 250.062 170.543 188.83 131.396 127.278C125.955 118.718 120.573 110.125 115.285 101.46C114.226 99.7278 113.161 97.9993 112.095 96.2721L111.692 95.6193L111.468 95.2566C106.562 87.2543 101.815 79.1649 97.2651 70.9326C96.4679 69.491 95.6667 68.0518 94.8654 66.6136L94.214 65.4234C93.9458 64.9333 93.6756 64.4396 93.4011 63.9382C93.1451 63.4723 92.8892 63.0061 92.6305 62.5349L92.1021 61.5724C91.0969 59.3985 90.6152 57.5247 90.2812 55.142C111.502 48.2486 135.301 64.4036 152.581 76.1333C152.972 76.3988 153.359 76.6619 153.744 76.9225C155.321 77.9794 156.913 79.0068 158.512 80.0265C169.696 87.1816 179.864 95.3986 189.729 104.435C194.237 108.715 196.454 110.82 199.029 112.159C201.519 113.455 204.345 114.035 209.903 115.176L210.706 116.022C210.583 117.144 210.355 115.139 210.33 119.385C210.304 123.632 211.206 124.757 213.564 127.493C214.869 128.86 216.194 130.207 217.533 131.536C218.233 132.26 218.932 132.983 219.653 133.729C221.889 136.037 224.149 138.316 226.411 140.596C228.648 142.883 230.879 145.176 233.11 147.471C234.497 148.894 235.889 150.313 237.286 151.726C241.221 155.719 244.898 159.837 248.439 164.218C249.64 165.612 250.844 167.005 252.052 168.393C255.324 172.222 258.356 176.16 261.285 180.283C261.45 180.513 261.616 180.743 261.783 180.974L262.088 181.396L262.23 181.593C294.337 226.073 305.489 277.349 313.97 331.421C318.087 357.601 322.362 383.735 328.723 409.427C328.88 410.067 329.037 410.707 329.196 411.357L329.236 411.518L329.417 412.254C333.781 429.721 339.867 446.643 347.902 462.613C348.923 464.649 349.926 466.695 350.929 468.742C355.119 477.273 359.425 485.702 364.047 493.982C364.287 494.415 364.527 494.848 364.771 495.287L365.117 495.909C371.869 508.065 378.786 520.113 385.753 532.134C387.415 535.008 389.057 537.894 390.681 540.792C394.943 548.361 399.454 555.007 404.992 561.626C406.219 563.189 407.44 564.757 408.654 566.33C410.4 568.59 412.151 570.845 413.935 573.071C435.263 599.856 435.263 599.856 436.603 611.62C436.438 612.955 436.363 613.556 436.111 614.059C435.903 614.471 435.575 614.816 434.978 615.445C428.728 619.228 419.575 616.5 412.488 614.388C412.285 614.328 412.078 614.266 411.878 614.207C411.179 613.999 410.502 613.799 409.852 613.615C408.498 613.203 407.145 612.785 405.795 612.359L405.583 612.294Z" fill="url(#paint1_linear_12_93)"/>
<path d="M278.144 105.03C302.608 103.484 326.897 123.099 344.197 139.244C344.882 139.887 344.882 139.887 345.582 140.543C346.163 141.082 346.744 141.621 347.342 142.176C352.3 146.815 357.065 151.634 361.752 156.571C362.943 157.824 364.141 159.07 365.339 160.316C370.087 165.288 374.416 170.458 378.498 176.056C379.393 177.235 380.29 178.412 381.189 179.587C388.326 189.044 394.762 198.883 400.977 209.032C401.837 210.416 401.837 210.416 402.715 211.827C411.04 225.595 418.616 240.32 424.259 255.538C424.505 256.185 424.75 256.832 425.003 257.498C436.41 287.846 441.368 320.032 445.936 352.142C452.415 397.579 463.975 441.958 486.175 481.93C487.443 484.244 488.594 486.555 489.69 488.962C494.477 499.251 500.699 508.817 506.638 518.393C508.068 520.701 509.486 523.016 510.906 525.331C514.256 530.796 517.626 536.248 521.008 541.692C523.054 544.99 525.094 548.293 527.132 551.598C528.119 553.195 529.11 554.791 530.105 556.384C531.478 558.584 532.838 560.791 534.198 563.001C534.61 563.656 535.023 564.311 535.448 564.987C538.835 570.54 538.835 570.54 538.262 574.31C530.078 577.718 521.665 575.435 513.741 572.196C493.366 562.886 474.821 547.417 458.621 531.656C456.877 529.98 455.112 528.348 453.324 526.725C449.76 523.449 446.41 519.974 443.076 516.442C442.501 515.84 441.926 515.238 441.334 514.618C437.618 510.697 434.1 506.647 430.682 502.438C429.968 501.575 429.255 500.712 428.54 499.849C419.632 488.91 411.542 477.386 404.189 465.234C403.877 464.721 403.566 464.208 403.245 463.68C383.974 431.656 378.586 394.67 373.336 357.826C373.25 357.222 373.163 356.617 373.075 355.994C372.196 349.838 371.323 343.681 370.469 337.521C368.497 323.335 366.263 309.267 363.244 295.279C363.022 294.238 362.799 293.198 362.57 292.126C358.853 275.477 353.084 259.597 347.187 243.7C346.981 243.143 346.775 242.585 346.562 242.011C342.178 230.186 337.643 218.528 331.934 207.341C331.62 206.714 331.306 206.087 330.982 205.441C325.173 193.845 318.657 182.808 311.863 171.828C311.163 170.695 311.163 170.695 310.448 169.538C308.64 166.612 306.831 163.686 305.023 160.761C278.144 117.223 278.144 117.223 278.144 105.03Z" fill="url(#paint2_linear_12_93)"/>
<path d="M446.739 194.658C472.89 197.901 501.232 226.605 516.78 247.136C518.376 249.333 519.897 251.579 521.402 253.847C521.893 254.581 521.893 254.581 522.394 255.331C533.03 271.344 541.532 288.576 547.695 307.011C547.978 307.848 548.261 308.685 548.552 309.547C554.155 326.864 556.6 344.843 559.135 362.87C565.746 409.832 578.527 461.024 610.668 496.447C612.122 498.211 612.122 498.211 612.975 500.08C613.668 501.897 613.668 501.897 616.136 502.438C616.234 503.092 616.331 503.746 616.431 504.42C617.053 508.492 617.67 512.513 618.696 516.496C619.348 519.349 619.348 519.349 618.545 521.04C613.603 520.618 609.736 519.419 605.248 517.235C604.62 516.934 603.992 516.633 603.345 516.321C589.077 509.315 576.071 499.576 564.755 488.064C564.253 487.558 563.752 487.05 563.234 486.529C555.587 478.773 548.537 470.886 542.276 461.852C541.771 461.137 541.266 460.422 540.746 459.686C536.581 453.625 532.962 447.197 529.431 440.713C528.967 439.864 528.967 439.864 528.494 438.998C513.811 411.779 509.423 380.532 504.588 350.053C500.282 322.981 495.529 295.439 483.669 270.758C483.392 270.173 483.115 269.589 482.83 268.988C477.849 258.531 472.201 248.543 466.452 238.538C446.739 204.199 446.739 204.199 446.739 194.658Z" fill="url(#paint3_linear_12_93)"/>
</g>
<path d="M857.75 530.15C831.717 530.15 809.167 524.1 790.1 512C771.4 499.9 756.917 483.4 746.65 462.5C736.383 441.233 731.25 416.667 731.25 388.8C731.25 360.567 736.383 335.633 746.65 314C756.917 292.367 771.767 275.5 791.2 263.4C811 250.933 834.283 244.7 861.05 244.7C880.85 244.7 898.633 248.733 914.4 256.8C930.533 264.5 943 275.867 951.8 290.9V115.45H1012.3V523H956.75L952.35 477.9C943.917 494.4 931.267 507.233 914.4 516.4C897.533 525.567 878.65 530.15 857.75 530.15ZM870.95 474.6C887.45 474.6 901.567 470.933 913.3 463.6C925.4 455.9 934.75 445.45 941.35 432.25C947.95 419.05 951.25 403.833 951.25 386.6C951.25 369.367 947.95 354.333 941.35 341.5C934.75 328.3 925.4 318.033 913.3 310.7C901.567 303 887.45 299.15 870.95 299.15C854.817 299.15 840.7 303 828.6 310.7C816.867 318.033 807.883 328.3 801.65 341.5C795.417 354.7 792.3 369.733 792.3 386.6C792.3 403.833 795.417 419.05 801.65 432.25C807.883 445.45 816.867 455.9 828.6 463.6C840.7 470.933 854.817 474.6 870.95 474.6ZM1192.33 530.15C1165.93 530.15 1142.46 524.1 1121.93 512C1101.4 499.9 1085.26 483.217 1073.53 461.95C1062.16 440.317 1056.48 415.567 1056.48 387.7C1056.48 359.467 1061.98 334.717 1072.98 313.45C1084.35 291.817 1100.11 274.95 1120.28 262.85C1140.45 250.75 1163.73 244.7 1190.13 244.7C1216.9 244.7 1240 250.383 1259.43 261.75C1278.86 272.75 1293.9 288.517 1304.53 309.05C1315.16 329.217 1320.48 353.233 1320.48 381.1V400.9L1088.38 401.45L1089.48 361.85H1259.98C1259.98 341.683 1253.75 325.55 1241.28 313.45C1228.81 300.983 1211.95 294.75 1190.68 294.75C1174.18 294.75 1160.25 298.233 1148.88 305.2C1137.51 312.167 1128.9 322.617 1123.03 336.55C1117.16 350.117 1114.23 366.617 1114.23 386.05C1114.23 416.483 1120.83 439.767 1134.03 455.9C1147.6 471.667 1167.4 479.55 1193.43 479.55C1212.5 479.55 1228.08 475.883 1240.18 468.55C1252.65 461.217 1260.9 450.767 1264.93 437.2H1321.58C1315.35 466.167 1300.86 488.9 1278.13 505.4C1255.4 521.9 1226.8 530.15 1192.33 530.15ZM1549.71 252.4H1610.76V523H1554.66L1549.71 485.05C1541.64 498.25 1529.36 509.067 1512.86 517.5C1496.73 525.933 1479.31 530.15 1460.61 530.15C1429.44 530.15 1405.06 520.25 1387.46 500.45C1370.23 480.65 1361.61 454.25 1361.61 421.25V252.4H1422.66V400.35C1422.66 427.117 1427.98 446.367 1438.61 458.1C1449.24 469.833 1464.09 475.7 1483.16 475.7C1505.53 475.7 1522.21 468.917 1533.21 455.35C1544.21 441.783 1549.71 421.433 1549.71 394.3V252.4ZM1644.52 442.15H1702.82C1703.19 454.617 1707.77 464.517 1716.57 471.85C1725.74 479.183 1738.2 482.85 1753.97 482.85C1770.84 482.85 1783.67 479.733 1792.47 473.5C1801.27 466.9 1805.67 458.283 1805.67 447.65C1805.67 439.95 1803.29 433.533 1798.52 428.4C1794.12 422.9 1785.32 418.683 1772.12 415.75L1724.27 404.2C1700.07 398.7 1681.92 389.9 1669.82 377.8C1658.09 365.333 1652.22 348.65 1652.22 327.75C1652.22 310.517 1656.8 295.667 1665.97 283.2C1675.14 270.733 1687.6 261.2 1703.37 254.6C1719.14 248 1737.1 244.7 1757.27 244.7C1777.44 244.7 1795.04 248.183 1810.07 255.15C1825.1 262.117 1836.84 272.2 1845.27 285.4C1854.07 298.233 1858.47 313.45 1858.47 331.05H1800.72C1800.35 318.217 1796.14 308.317 1788.07 301.35C1780.37 294.017 1769.37 290.35 1755.07 290.35C1740.77 290.35 1729.59 293.467 1721.52 299.7C1713.82 305.933 1709.97 314.55 1709.97 325.55C1709.97 342.05 1722.25 353.233 1746.82 359.1L1795.22 370.1C1817.95 375.233 1835 383.667 1846.37 395.4C1857.74 406.767 1863.42 422.717 1863.42 443.25C1863.42 460.85 1858.65 476.25 1849.12 489.45C1839.95 502.283 1826.94 512.367 1810.07 519.7C1793.57 526.667 1774.32 530.15 1752.32 530.15C1719.32 530.15 1693.1 522.083 1673.67 505.95C1654.24 489.817 1644.52 468.55 1644.52 442.15ZM1958.76 523L1870.21 252.4H1934.01L1973.06 378.35C1975.99 388.617 1978.74 399.433 1981.31 410.8C1984.24 421.8 1986.99 433.533 1989.56 446C1991.02 437.567 1992.67 429.683 1994.51 422.35C1996.34 415.017 1998.36 407.867 2000.56 400.9C2002.76 393.567 2005.14 386.05 2007.71 378.35L2048.41 252.4H2110.56L2149.61 378.35C2150.71 381.283 2151.99 385.683 2153.46 391.55C2154.92 397.05 2156.57 403.1 2158.41 409.7C2160.24 416.3 2161.89 422.9 2163.36 429.5C2165.19 435.733 2166.47 441.233 2167.21 446C2169.04 438.667 2170.87 431.15 2172.71 423.45C2174.54 415.383 2176.56 407.5 2178.76 399.8C2180.96 392.1 2183.16 384.95 2185.36 378.35L2224.96 252.4H2288.76L2195.81 523H2138.61L2097.36 394.85C2092.22 378.717 2088.19 364.783 2085.26 353.05C2082.32 340.95 2080.31 331.417 2079.21 324.45C2077.74 331.05 2075.54 339.667 2072.61 350.3C2069.67 360.933 2065.27 375.967 2059.41 395.4L2018.16 523H1958.76ZM2426.65 530.15C2400.25 530.15 2376.78 524.1 2356.25 512C2335.72 499.9 2319.58 483.217 2307.85 461.95C2296.48 440.317 2290.8 415.567 2290.8 387.7C2290.8 359.467 2296.3 334.717 2307.3 313.45C2318.67 291.817 2334.43 274.95 2354.6 262.85C2374.77 250.75 2398.05 244.7 2424.45 244.7C2451.22 244.7 2474.32 250.383 2493.75 261.75C2513.18 272.75 2528.22 288.517 2538.85 309.05C2549.48 329.217 2554.8 353.233 2554.8 381.1V400.9L2322.7 401.45L2323.8 361.85H2494.3C2494.3 341.683 2488.07 325.55 2475.6 313.45C2463.13 300.983 2446.27 294.75 2425 294.75C2408.5 294.75 2394.57 298.233 2383.2 305.2C2371.83 312.167 2363.22 322.617 2357.35 336.55C2351.48 350.117 2348.55 366.617 2348.55 386.05C2348.55 416.483 2355.15 439.767 2368.35 455.9C2381.92 471.667 2401.72 479.55 2427.75 479.55C2446.82 479.55 2462.4 475.883 2474.5 468.55C2486.97 461.217 2495.22 450.767 2499.25 437.2H2555.9C2549.67 466.167 2535.18 488.9 2512.45 505.4C2489.72 521.9 2461.12 530.15 2426.65 530.15ZM2660.83 523H2600.33V115.45H2660.83V523ZM2784.11 523H2723.61V115.45H2784.11V523Z" fill="#F1F5F8"/>
<path d="M2887.59 529.6C2876.22 529.6 2866.5 525.75 2858.44 518.05C2850.37 509.983 2846.34 500.45 2846.34 489.45C2846.34 477.717 2850.37 468 2858.44 460.3C2866.5 452.233 2876.22 448.2 2887.59 448.2C2898.59 448.2 2908.12 452.233 2916.19 460.3C2924.62 468 2928.84 477.717 2928.84 489.45C2928.84 500.45 2924.62 509.983 2916.19 518.05C2908.12 525.75 2898.59 529.6 2887.59 529.6Z" fill="#FF0E00"/>
</g>
<defs>
<filter id="filter0_d_12_93" x="-4" y="0" width="3008" height="663" filterUnits="userSpaceOnUse" color-interpolation-filters="sRGB">
<feFlood flood-opacity="0" result="BackgroundImageFix"/>
<feColorMatrix in="SourceAlpha" type="matrix" values="0 0 0 0 0 0 0 0 0 0 0 0 0 0 0 0 0 0 127 0" result="hardAlpha"/>
<feOffset dy="4"/>
<feGaussianBlur stdDeviation="2"/>
<feComposite in2="hardAlpha" operator="out"/>
<feColorMatrix type="matrix" values="0 0 0 0 0 0 0 0 0 0 0 0 0 0 0 0 0 0 0.25 0"/>
<feBlend mode="normal" in2="BackgroundImageFix" result="effect1_dropShadow_12_93"/>
<feBlend mode="normal" in="SourceGraphic" in2="effect1_dropShadow_12_93" result="shape"/>
</filter>
<linearGradient id="paint0_linear_12_93" x1="263.442" y1="53.4888" x2="263.442" y2="617.332" gradientUnits="userSpaceOnUse">
<stop stop-color="#0064E0"/>
<stop offset="1" stop-color="#0082FB"/>
</linearGradient>
<linearGradient id="paint1_linear_12_93" x1="263.442" y1="53.4888" x2="263.442" y2="617.332" gradientUnits="userSpaceOnUse">
<stop stop-color="#0064E0"/>
<stop offset="1" stop-color="#0082FB"/>
</linearGradient>
<linearGradient id="paint2_linear_12_93" x1="408.345" y1="104.944" x2="408.345" y2="576" gradientUnits="userSpaceOnUse">
<stop stop-color="#0064E0"/>
<stop offset="1" stop-color="#0082FB"/>
</linearGradient>
<linearGradient id="paint3_linear_12_93" x1="532.953" y1="194.658" x2="532.953" y2="521.04" gradientUnits="userSpaceOnUse">
<stop stop-color="#0064E0"/>
<stop offset="1" stop-color="#0082FB"/>
</linearGradient>
<clipPath id="clip0_12_93">
<rect width="559" height="594" fill="white" transform="translate(75 32)"/>
</clipPath>
</defs>
</svg>
